<svg width="325" height="129" viewBox="0 0 325 129" fill="none" xmlns="http://www.w3.org/2000/svg">
<path d="M94.4354 53.7864C94.4354 53.3721 94.2127 53.1805 93.8294 53.1805H92.6485V50.8187H95.4246C96.6573 50.8187 97.1804 51.3418 97.1804 52.5745V58.9762H99.0243C99.7339 58.9762 100.283 58.8674 100.614 58.3184L104.929 50.8187H108.005L103.308 58.8674C102.759 59.8308 102.21 60.1312 102.21 60.1312V60.1881C102.21 60.1881 102.759 60.3228 103.308 61.3949L106.218 67.2165C106.493 67.7966 106.933 67.8484 107.591 67.8484H108.114V70.2102H106.602C105.095 70.2102 104.514 70.0186 103.914 68.7548L100.563 62.0268C100.231 61.3949 99.6251 61.3121 98.8275 61.3121H97.1804V70.2102H94.4354V53.7864Z" fill="#1E1F1E"/>
<path d="M107.622 74.6075L108.72 72.6859C108.746 72.7688 109.601 73.6752 110.75 73.6752C111.823 73.6752 112.677 72.9035 113.195 71.6708L113.827 70.1584L109.077 59.1419C108.886 58.7017 108.663 58.5929 108.223 58.5929H107.871V56.314H109.435C110.559 56.314 110.999 56.6144 111.439 57.7124L114.573 65.5436C114.847 66.2583 115.065 67.2165 115.065 67.2165H115.122C115.122 67.2165 115.339 66.2583 115.588 65.5436L118.499 57.7124C118.882 56.6144 119.379 56.314 120.503 56.314H122.098V58.5929H121.741C121.301 58.5929 121.052 58.7017 120.86 59.1419L115.396 72.7118C114.516 74.8561 112.838 75.98 110.89 75.98C108.829 75.98 107.622 74.6075 107.622 74.6075Z" fill="#1E1F1E"/>
<path d="M131.328 68.2628C133.498 68.2628 135.311 66.45 135.311 63.2906C135.311 60.2659 133.69 58.3184 131.385 58.3184C129.324 58.3184 127.371 59.7738 127.371 63.3165C127.371 65.7923 128.718 68.2628 131.328 68.2628ZM124.792 59.1989C124.792 58.7846 124.569 58.5929 124.186 58.5929H123.062V56.314H125.558C126.796 56.314 127.262 56.8371 127.262 57.7125C127.262 58.1268 127.236 58.4531 127.236 58.4531H127.288C127.288 58.4531 128.443 55.9825 131.903 55.9825C135.668 55.9825 138.03 58.9503 138.03 63.2647C138.03 67.6879 135.368 70.5417 131.711 70.5417C128.635 70.5417 127.454 68.3146 127.454 68.3146H127.402C127.402 68.3146 127.454 68.8118 127.454 69.5266V75.7056H124.792V59.1989Z" fill="#1E1F1E"/>
<path d="M141.303 58.5929H139.568V56.314H148.772C150.036 56.314 150.559 56.7542 150.559 58.018V60.1312H148.332V59.1989C148.332 58.8104 148.114 58.5929 147.731 58.5929H143.966V70.2102H141.303V58.5929Z" fill="#1E1F1E"/>
<path d="M156.935 68.4286C159.24 68.4286 160.669 66.0668 160.669 64.0054V63.4823H159.954C157.95 63.4823 154.324 63.6739 154.324 66.1755C154.324 67.2995 155.2 68.4286 156.935 68.4286ZM160.063 61.5607H160.669V61.3691C160.669 58.9762 159.737 58.1009 157.593 58.1009C156.935 58.1009 155.314 58.2615 155.314 59.1679V59.9655H152.786V58.567C152.786 56.3399 156.272 55.9825 157.536 55.9825C162.125 55.9825 163.331 58.3184 163.331 61.4209V67.3305C163.331 67.7397 163.554 67.9313 163.937 67.9313H165.066V70.2103H162.539C161.301 70.2103 160.835 69.6095 160.835 68.6202C160.835 68.123 160.861 67.7967 160.861 67.7967H160.804C160.835 67.7967 159.623 70.5417 156.329 70.5417C153.91 70.5417 151.657 69.0863 151.657 66.4241C151.657 61.7524 157.727 61.5607 160.063 61.5607Z" fill="#1E1F1E"/>
<path d="M167.754 59.1989C167.754 58.7845 167.537 58.5929 167.154 58.5929H166.025V56.314H168.661C169.899 56.314 170.422 56.8371 170.422 58.0698V62.0009H177.455V56.314H180.118V67.3305C180.118 67.7396 180.34 67.9313 180.724 67.9313H181.822V70.2102H179.211C177.973 70.2102 177.455 69.6923 177.455 68.4544V64.2229H170.422V70.2102H167.754V59.1989Z" fill="#1E1F1E"/>
<path d="M190.834 55.9825C192.507 55.9825 195.832 56.6714 195.832 59.0332V60.4627H193.413V59.691C193.413 58.7017 191.823 58.2615 190.834 58.2615C188.115 58.2615 186.053 60.297 186.053 63.2337C186.053 66.3931 188.358 68.1799 190.968 68.1799C193.579 68.1799 195.283 66.2584 195.283 66.2584L196.407 68.154C196.407 68.154 194.459 70.5417 190.777 70.5417C186.411 70.5417 183.36 67.4393 183.36 63.2647C183.36 59.1678 186.354 55.9825 190.834 55.9825Z" fill="#1E1F1E"/>
<path d="M199.349 59.1989C199.349 58.7845 199.131 58.5929 198.743 58.5929H197.619V56.314H200.255C201.493 56.314 202.011 56.8371 202.011 58.0698V61.7782H203.166C203.746 61.7782 204.295 61.6435 204.621 61.1463L207.946 56.314H210.94L207.123 61.8352C206.517 62.7157 206.077 62.8762 206.077 62.8762V62.9332C206.077 62.9332 206.6 63.1248 207.123 63.9794L209.153 67.3823C209.428 67.8225 209.676 67.9313 210.365 67.9313H211.189V70.2102H209.267C207.972 70.2102 207.537 69.9927 206.957 68.9205L204.487 64.6061C204.186 64.1141 203.715 64.0571 203.14 64.0571H202.011V70.2102H199.349V59.1989Z" fill="#1E1F1E"/>
<path d="M213.965 59.1989C213.965 58.7845 213.742 58.5929 213.385 58.5929H212.287V56.314H214.731C215.969 56.314 216.492 56.806 216.492 58.0439V64.6631C216.492 65.4038 216.409 66.45 216.378 66.5847H216.435C216.544 66.3671 217.259 65.295 217.725 64.6631L223.718 56.314H226.354V67.3305C226.354 67.7396 226.571 67.9313 226.929 67.9313H228.027V70.2102H225.582C224.349 70.2102 223.826 69.6923 223.826 68.4544V61.8611C223.826 61.1774 223.909 60.1312 223.935 59.9136H223.878C223.769 60.1571 223.055 61.2292 222.588 61.8611L216.601 70.2102H213.965V59.1989Z" fill="#1E1F1E"/>
<path d="M233.056 51.202V50.7928H235.2V51.1761C235.2 52.3829 236.158 52.9888 237.122 52.9888C238.085 52.9888 239.069 52.3829 239.069 51.1502V50.7928H241.188V51.202C241.188 53.455 239.266 54.7187 237.122 54.7187C235.003 54.7187 233.056 53.455 233.056 51.202ZM230.969 59.1989C230.969 58.7845 230.751 58.5929 230.389 58.5929H229.291V56.314H231.735C232.973 56.314 233.496 56.806 233.496 58.0439V64.6631C233.496 65.4038 233.413 66.45 233.387 66.5847H233.439C233.548 66.3671 234.263 65.295 234.729 64.6631L240.721 56.314H243.358V67.3305C243.358 67.7397 243.575 67.9313 243.933 67.9313H245.031V70.2102H242.586C241.353 70.2102 240.83 69.6923 240.83 68.4544V61.8611C240.83 61.1774 240.913 60.1312 240.939 59.9137H240.887C240.773 60.1571 240.058 61.2292 239.592 61.8611L233.605 70.2102H230.969V59.1989Z" fill="#1E1F1E"/>
<path d="M94.0521 85.0181H92.317V82.7391H101.521C102.785 82.7391 103.308 83.1794 103.308 84.4431V86.5563H101.081V85.624C101.081 85.2408 100.863 85.0181 100.48 85.0181H96.7143V96.6406H94.0521V85.0181Z" fill="#1E1F1E"/>
<path d="M112.154 94.662C114.79 94.662 116.935 92.5748 116.935 89.6639C116.935 86.779 114.79 84.7177 112.154 84.7177C109.544 84.7177 107.373 86.779 107.373 89.6639C107.373 92.5748 109.544 94.662 112.154 94.662ZM112.154 82.4077C116.303 82.4077 119.654 85.4583 119.654 89.6639C119.654 93.8903 116.303 96.9669 112.154 96.9669C108.005 96.9669 104.68 93.8903 104.68 89.6639C104.68 85.4583 108.005 82.4077 112.154 82.4077Z" fill="#1E1F1E"/>
<path d="M128.94 82.4077C130.613 82.4077 133.938 83.0965 133.938 85.4583V86.8878H131.52V86.1161C131.52 85.132 129.93 84.6918 128.94 84.6918C126.216 84.6918 124.16 86.7221 124.16 89.6639C124.16 92.8234 126.465 94.6051 129.075 94.6051C131.685 94.6051 133.389 92.6835 133.389 92.6835L134.513 94.5792C134.513 94.5792 132.566 96.9669 128.883 96.9669C124.517 96.9669 121.466 93.8644 121.466 89.6898C121.466 85.5981 124.46 82.4077 128.94 82.4077Z" fill="#1E1F1E"/>
<path d="M135.067 101.033L136.166 99.1111C136.191 99.194 137.041 100.1 138.196 100.1C139.268 100.1 140.117 99.3338 140.64 98.096L141.272 96.5836L136.523 85.5671C136.326 85.132 136.109 85.0181 135.668 85.0181H135.311V82.7391H136.88C138.004 82.7391 138.444 83.0395 138.885 84.1427L142.013 91.9688C142.288 92.6835 142.51 93.6469 142.51 93.6469H142.562C142.562 93.6469 142.785 92.6835 143.033 91.9688L145.944 84.1427C146.327 83.0395 146.825 82.7391 147.949 82.7391H149.544V85.0181H149.186C148.746 85.0181 148.498 85.132 148.306 85.5671L142.837 99.137C141.961 101.281 140.283 102.41 138.336 102.41C136.274 102.41 135.067 101.033 135.067 101.033Z" fill="#1E1F1E"/>
<path d="M160.369 94.4134V85.624C160.369 85.2097 160.146 85.0181 159.763 85.0181H156.303V85.624C156.303 87.5456 156.246 91.7771 154.159 94.4134H160.369ZM151.248 94.4134H151.465C153.692 91.8341 153.775 87.6854 153.775 85.6499V85.0181H152.071V82.7391H161.275C162.508 82.7391 163.031 83.2623 163.031 84.4949V94.4134H163.471C164.678 94.4134 165.144 94.9624 165.144 96.1433V99.9346H162.699V97.2414C162.699 96.8581 162.482 96.6406 162.124 96.6406H152.594C152.237 96.6406 152.014 96.8581 152.014 97.2414V99.9346H149.57V96.1433C149.57 94.9624 150.036 94.4134 151.248 94.4134Z" fill="#1E1F1E"/>
<path d="M171.546 94.8537C173.856 94.8537 175.285 92.4919 175.285 90.4305V89.9074H174.571C172.561 89.9074 168.935 90.1042 168.935 92.6006C168.935 93.7297 169.816 94.8537 171.546 94.8537ZM174.679 87.9858H175.285V87.7942C175.285 85.4065 174.348 84.526 172.209 84.526C171.546 84.526 169.925 84.6918 169.925 85.5981V86.3906H167.397V84.9922C167.397 82.765 170.888 82.4077 172.152 82.4077C176.741 82.4077 177.947 84.7436 177.947 87.8512V93.7556C177.947 94.1648 178.17 94.3616 178.553 94.3616H179.677V96.6406H177.15C175.917 96.6406 175.446 96.0346 175.446 95.0453C175.446 94.5533 175.477 94.2218 175.477 94.2218H175.42C175.446 94.2218 174.239 96.9669 170.945 96.9669C168.526 96.9669 166.273 95.5115 166.273 92.8493C166.273 88.1775 172.343 87.9858 174.679 87.9858Z" fill="#1E1F1E"/>
<path d="M188.907 94.6879C191.077 94.6879 192.89 92.8752 192.89 89.7157C192.89 86.6962 191.274 84.7435 188.964 84.7435C186.903 84.7435 184.955 86.1989 184.955 89.7468C184.955 92.2174 186.302 94.6879 188.907 94.6879ZM182.371 85.624C182.371 85.2097 182.153 85.0181 181.765 85.0181H180.641V82.7391H183.142C184.375 82.7391 184.841 83.2623 184.841 84.1427C184.841 84.5519 184.815 84.8834 184.815 84.8834H184.872C184.872 84.8834 186.022 82.4077 189.487 82.4077C193.247 82.4077 195.609 85.3754 195.609 89.6898C195.609 94.113 192.947 96.9669 189.295 96.9669C186.219 96.9669 185.038 94.7449 185.038 94.7449H184.981C184.981 94.7449 185.038 95.2369 185.038 95.9517V102.136H182.371V85.624Z" fill="#1E1F1E"/>
<path d="M204.927 82.4077C206.6 82.4077 209.925 83.0965 209.925 85.4583V86.8878H207.506V86.1161C207.506 85.132 205.916 84.6918 204.927 84.6918C202.208 84.6918 200.146 86.7221 200.146 89.6639C200.146 92.8234 202.451 94.6051 205.061 94.6051C207.672 94.6051 209.376 92.6835 209.376 92.6835L210.5 94.5792C210.5 94.5792 208.552 96.9669 204.87 96.9669C200.504 96.9669 197.453 93.8644 197.453 89.6898C197.453 85.5981 200.447 82.4077 204.927 82.4077Z" fill="#1E1F1E"/>
<path d="M216.984 85.0181H214.291C213.908 85.0181 213.69 85.2408 213.69 85.624V86.5563H211.489V84.4431C211.489 83.2053 212.012 82.7391 213.25 82.7391H223.36C224.593 82.7391 225.116 83.2053 225.116 84.4431V86.5563H222.92V85.624C222.92 85.2408 222.697 85.0181 222.314 85.0181H219.621V96.6406H216.984V85.0181Z" fill="#1E1F1E"/>
<path d="M231.077 94.7449H233.387C235.309 94.7449 236.215 93.8903 236.215 92.5489C236.215 91.1711 235.2 90.3787 233.387 90.3787H230.554V94.1959C230.554 94.5533 230.751 94.7449 231.077 94.7449ZM233.165 88.5918C234.734 88.5918 235.558 87.7942 235.558 86.5563C235.558 85.2926 234.703 84.6089 233.082 84.6089H230.554V88.5918H233.165ZM227.892 85.0181H226.162V82.7391H233.631C236.433 82.7391 238.246 83.977 238.246 86.3129C238.246 87.8771 237.422 88.8663 236.298 89.3325V89.3894C238.028 89.7727 238.934 91.1711 238.934 92.6835C238.934 95.268 236.847 96.6406 233.828 96.6406H229.43C228.332 96.6406 227.892 96.1744 227.892 95.1282V85.0181Z" fill="#1E1F1E"/>
<path d="M251.075 88.2085C250.997 85.7587 249.511 84.4949 247.698 84.4949C245.637 84.4949 244.015 85.8727 243.632 88.2085H251.075ZM247.755 82.4077C251.681 82.4077 253.742 85.3236 253.742 88.9181C253.742 89.2496 253.716 89.607 253.659 89.9643H243.523C243.689 92.9839 245.828 94.662 248.33 94.662C249.811 94.662 251.324 94.0043 252.422 93.0409L253.551 94.9935C252.204 96.2262 250.091 96.9669 248.164 96.9669C243.798 96.9669 240.773 93.8074 240.773 89.6898C240.773 85.2667 243.798 82.4077 247.755 82.4077Z" fill="#1E1F1E"/>
<path d="M257.01 85.624C257.01 85.2097 256.793 85.0181 256.405 85.0181H255.281V82.7391H257.917C259.155 82.7391 259.678 83.2623 259.678 84.4949V88.4261H266.706V82.7391H269.374V93.7556C269.374 94.1648 269.591 94.3616 269.98 94.3616H271.078V96.6406H268.467C267.229 96.6406 266.706 96.1174 266.706 94.8796V90.6532H259.678V96.6406H257.01V85.624Z" fill="#1E1F1E"/>
<path d="M274.045 85.624C274.045 85.2097 273.823 85.0181 273.439 85.0181H272.31V82.7391H274.952C276.184 82.7391 276.708 83.2623 276.708 84.4949V88.4261H283.741V82.7391H286.403V93.7556C286.403 94.1648 286.626 94.3616 287.009 94.3616H288.107V96.6406H285.497C284.264 96.6406 283.741 96.1174 283.741 94.8796V90.6532H276.708V96.6406H274.045V85.624Z" fill="#1E1F1E"/>
<path d="M303.63 82.7391H306.297V93.7556C306.297 94.1648 306.515 94.3616 306.898 94.3616H308.001V96.6406H305.391C304.153 96.6406 303.63 96.1174 303.63 94.8796V82.7391ZM294.235 94.719H296.13C297.808 94.719 298.767 93.6987 298.767 92.2174C298.767 90.705 297.86 89.7468 296.13 89.7468H293.711V94.1648C293.711 94.5222 293.903 94.719 294.235 94.719ZM291.049 85.624C291.049 85.2097 290.827 85.0181 290.443 85.0181H289.319V82.7391H291.956C293.162 82.7391 293.711 83.2622 293.711 84.3344V87.8201H296.462C299.647 87.8201 301.46 89.55 301.46 92.2433C301.46 94.9624 299.398 96.6406 296.462 96.6406H292.562C291.49 96.6406 291.049 96.1744 291.049 95.1282V85.624Z" fill="#1E1F1E"/>
<path d="M313.025 77.6322V77.2179H315.17V77.6012C315.17 78.8131 316.128 79.4139 317.091 79.4139C318.049 79.4139 319.044 78.8131 319.044 77.5753V77.2179H321.157V77.6322C321.157 79.8801 319.235 81.1439 317.091 81.1439C314.978 81.1439 313.025 79.8801 313.025 77.6322ZM310.938 85.624C310.938 85.2097 310.715 85.018 310.363 85.018H309.265V82.7391H311.71C312.942 82.7391 313.466 83.2363 313.466 84.469V91.0882C313.466 91.8341 313.383 92.8751 313.352 93.015H313.409C313.517 92.7922 314.232 91.7201 314.703 91.0882L320.691 82.7391H323.327V93.7556C323.327 94.1648 323.55 94.3616 323.902 94.3616H325V96.6405H322.555C321.323 96.6405 320.8 96.1174 320.8 94.8795V88.2862C320.8 87.6025 320.882 86.5563 320.908 86.3388H320.851C320.748 86.5874 320.033 87.6543 319.562 88.2862L313.574 96.6405H310.938V85.624Z" fill="#1E1F1E"/>
<path d="M91.7991 127.463L92.8971 125.541C92.923 125.619 93.7776 126.525 94.9274 126.525C95.9995 126.525 96.8489 125.759 97.3721 124.521L98.004 123.014L93.2545 111.997C93.0628 111.557 92.8401 111.448 92.3999 111.448H92.0425V109.164H93.6118C94.7358 109.164 95.176 109.47 95.6163 110.568L98.7446 118.394C99.0243 119.109 99.2418 120.072 99.2418 120.072H99.2988C99.2988 120.072 99.5163 119.109 99.7649 118.394L102.676 110.568C103.059 109.47 103.556 109.164 104.68 109.164H106.275V111.448H105.918C105.478 111.448 105.229 111.557 105.038 111.997L99.5733 125.567C98.6928 127.706 97.0147 128.835 95.0672 128.835C93.0059 128.835 91.7991 127.463 91.7991 127.463Z" fill="#1E1F1E"/>
<path d="M108.969 112.049C108.969 111.64 108.746 111.448 108.363 111.448H107.239V109.164H109.875C111.108 109.164 111.631 109.687 111.631 110.925V114.851H118.664V109.164H121.327V120.181C121.327 120.595 121.549 120.787 121.933 120.787H123.031V123.066H120.42C119.188 123.066 118.664 122.543 118.664 121.31V117.078H111.631V123.066H108.969V112.049Z" fill="#1E1F1E"/>
<path d="M125.973 112.049C125.973 111.64 125.75 111.448 125.392 111.448H124.294V109.164H126.739C127.977 109.164 128.5 109.661 128.5 110.899V117.519C128.5 118.259 128.417 119.305 128.391 119.44H128.443C128.552 119.223 129.267 118.15 129.733 117.519L135.725 109.164H138.362V120.181C138.362 120.595 138.579 120.787 138.936 120.787H140.035V123.066H137.59C136.357 123.066 135.834 122.543 135.834 121.31V114.717C135.834 114.028 135.917 112.987 135.943 112.764H135.891C135.777 113.013 135.062 114.085 134.596 114.717L128.609 123.066H125.973V112.049Z" fill="#1E1F1E"/>
<path d="M146.136 121.17H148.441C150.367 121.17 151.274 120.321 151.274 118.974C151.274 117.601 150.253 116.804 148.441 116.804H145.613V120.621C145.613 120.978 145.804 121.17 146.136 121.17ZM148.223 115.017C149.787 115.017 150.611 114.219 150.611 112.987C150.611 111.723 149.761 111.034 148.14 111.034H145.613V115.017H148.223ZM142.95 111.448H141.221V109.164H148.689C151.491 109.164 153.304 110.402 153.304 112.738C153.304 114.302 152.481 115.291 151.357 115.758V115.815C153.087 116.198 153.993 117.601 153.993 119.109C153.993 121.693 151.906 123.066 148.881 123.066H144.489C143.391 123.066 142.95 122.6 142.95 121.553V111.448Z" fill="#1E1F1E"/>
<path d="M166.133 114.634C166.05 112.189 164.569 110.925 162.756 110.925C160.695 110.925 159.074 112.298 158.691 114.634H166.133ZM162.808 108.838C166.739 108.838 168.801 111.749 168.801 115.348C168.801 115.675 168.77 116.032 168.718 116.389H158.582C158.748 119.414 160.887 121.087 163.388 121.087C164.87 121.087 166.382 120.429 167.48 119.466L168.609 121.419C167.262 122.656 165.144 123.397 163.223 123.397C158.856 123.397 155.832 120.238 155.832 116.115C155.832 111.692 158.856 108.838 162.808 108.838Z" fill="#1E1F1E"/>
<path d="M178.605 121.118C180.775 121.118 182.588 119.305 182.588 116.146C182.588 113.121 180.967 111.174 178.662 111.174C176.601 111.174 174.648 112.629 174.648 116.172C174.648 118.642 175.995 121.118 178.605 121.118ZM172.069 112.049C172.069 111.64 171.851 111.448 171.463 111.448H170.339V109.164H172.835C174.073 109.164 174.539 109.687 174.539 110.568C174.539 110.977 174.514 111.309 174.514 111.309H174.571C174.571 111.309 175.72 108.838 179.185 108.838C182.946 108.838 185.307 111.806 185.307 116.115C185.307 120.538 182.645 123.397 178.989 123.397C175.912 123.397 174.731 121.17 174.731 121.17H174.679C174.679 121.17 174.731 121.667 174.731 122.382V128.561H172.069V112.049Z" fill="#1E1F1E"/>
<path d="M194.62 108.838C196.298 108.838 199.623 109.522 199.623 111.889V113.313H197.204V112.546C197.204 111.557 195.609 111.117 194.62 111.117C191.901 111.117 189.844 113.147 189.844 116.089C189.844 119.248 192.149 121.035 194.76 121.035C197.37 121.035 199.074 119.109 199.074 119.109L200.198 121.004C200.198 121.004 198.251 123.397 194.568 123.397C190.202 123.397 187.151 120.29 187.151 116.115C187.151 112.023 190.145 108.838 194.62 108.838Z" fill="#1E1F1E"/>
<path d="M203.109 112.049C203.109 111.64 202.891 111.448 202.534 111.448H201.436V109.164H203.881C205.118 109.164 205.636 109.661 205.636 110.899V117.519C205.636 118.259 205.559 119.305 205.528 119.44H205.585C205.693 119.223 206.408 118.15 206.874 117.519L212.862 109.164H215.498V120.181C215.498 120.595 215.721 120.787 216.078 120.787H217.176V123.066H214.731C213.493 123.066 212.976 122.543 212.976 121.31V114.717C212.976 114.028 213.053 112.987 213.084 112.764H213.027C212.919 113.013 212.204 114.085 211.738 114.717L205.75 123.066H203.109V112.049Z" fill="#1E1F1E"/>
<path d="M223.661 111.448H220.967C220.584 111.448 220.361 111.666 220.361 112.049V112.987H218.165V110.868C218.165 109.636 218.688 109.164 219.926 109.164H230.031C231.269 109.164 231.792 109.636 231.792 110.868V112.987H229.596V112.049C229.596 111.666 229.373 111.448 228.99 111.448H226.297V123.066H223.661V111.448Z" fill="#1E1F1E"/>
<path d="M243.492 114.634C243.415 112.189 241.928 110.925 240.115 110.925C238.054 110.925 236.433 112.298 236.05 114.634H243.492ZM240.172 108.838C244.098 108.838 246.16 111.749 246.16 115.348C246.16 115.675 246.129 116.032 246.077 116.389H235.941C236.107 119.414 238.246 121.087 240.747 121.087C242.229 121.087 243.741 120.429 244.839 119.466L245.968 121.419C244.621 122.656 242.503 123.397 240.582 123.397C236.215 123.397 233.191 120.238 233.191 116.115C233.191 111.692 236.215 108.838 240.172 108.838Z" fill="#1E1F1E"/>
<path d="M253.079 111.448H250.391C250.003 111.448 249.785 111.666 249.785 112.049V112.987H247.589V110.868C247.589 109.636 248.107 109.164 249.345 109.164H259.455C260.693 109.164 261.211 109.636 261.211 110.868V112.987H259.015V112.049C259.015 111.666 258.797 111.448 258.409 111.448H255.721V123.066H253.079V111.448Z" fill="#1E1F1E"/>
<path d="M30.6152 0.16449L45.0553 14.5994L30.6152 29.0395L16.1803 14.5994L30.6152 0.16449Z" fill="#0097D7"/>
<path d="M28.8801 83.5989C32.8683 88.4002 36.4368 92.9995 39.9122 98.9972C44.9724 107.735 47.5932 114.25 51.2446 123.024H71.6928C69.9473 114.323 60.3344 95.3353 55.4192 87.53C51.1618 80.7554 45.1537 73.0019 45.1537 73.0019C45.1537 73.0019 46.0549 72.2664 46.6298 71.7433C48.0749 70.4381 49.841 68.8791 51.7056 66.7401C53.8136 64.3213 54.9324 62.4982 56.3308 60.2244C57.4702 58.3754 60.552 52.8749 61.2408 49.4099H40.8238C38.8711 52.5227 34.7794 57.93 30.6826 61.2603C27.2383 64.0623 22.2195 66.6313 20.4171 67.0664V49.4099H0L0.0258968 122.998H20.4171V88.6954C21.3908 88.1775 22.4836 87.6233 23.504 87.038C24.6952 86.344 27.7977 84.2878 28.8801 83.5989Z" fill="#1E1F1E"/>
</svg>
